<?xml version="1.0" encoding="utf-8"?>
<!-- Generator: Adobe Illustrator 19.0.0, SVG Export Plug-In . SVG Version: 6.00 Build 0)  -->
<svg version="1.1" xmlns="http://www.w3.org/2000/svg" xmlns:xlink="http://www.w3.org/1999/xlink" x="0px" y="0px"
	 viewBox="34.4 626.1 399.6 150.4" style="enable-background:new 34.4 626.1 399.6 150.4;" xml:space="preserve">
<style type="text/css">
	.st0{fill:url(#SVGID_1_);}
	.st1{fill:url(#SVGID_2_);}
	.st2{opacity:0.43;fill:url(#SVGID_3_);enable-background:new    ;}
	.st3{fill:url(#SVGID_4_);}
	.st4{fill:url(#SVGID_5_);}
	.st5{fill:url(#SVGID_6_);}
	.st6{fill:url(#SVGID_7_);}
	.st7{fill:url(#SVGID_8_);}
	.st8{fill:url(#SVGID_9_);}
	.st9{opacity:0.25;fill:#0FA64A;enable-background:new    ;}
	.st10{fill:url(#SVGID_10_);}
	.st11{opacity:0.17;fill:url(#SVGID_11_);enable-background:new    ;}
	.st12{fill:url(#SVGID_12_);}
	.st13{fill:url(#SVGID_13_);}
	.st14{opacity:0.43;fill:url(#SVGID_14_);enable-background:new    ;}
	.st15{fill:url(#SVGID_15_);}
	.st16{fill:url(#SVGID_16_);}
	.st17{fill:url(#SVGID_17_);}
	.st18{fill:url(#SVGID_18_);}
	.st19{fill:url(#SVGID_19_);}
	.st20{fill:url(#SVGID_20_);}
	.st21{fill:url(#SVGID_21_);}
	.st22{opacity:0.17;fill:url(#SVGID_22_);enable-background:new    ;}
	.st23{fill:#FFFFFF;}
	.st24{fill:url(#SVGID_23_);}
	.st25{fill:url(#SVGID_24_);}
	.st26{opacity:0.43;fill:url(#SVGID_25_);enable-background:new    ;}
	.st27{fill:url(#SVGID_26_);}
	.st28{fill:url(#SVGID_27_);}
	.st29{fill:url(#SVGID_28_);}
	.st30{fill:url(#SVGID_29_);}
	.st31{fill:url(#SVGID_30_);}
	.st32{fill:url(#SVGID_31_);}
	.st33{fill:url(#SVGID_32_);}
	.st34{opacity:0.17;fill:url(#SVGID_33_);enable-background:new    ;}
</style>
<g id="Objects">
	
		<linearGradient id="SVGID_1_" gradientUnits="userSpaceOnUse" x1="86.5463" y1="464.421" x2="162.0766" y2="464.421" gradientTransform="matrix(0.9487 -0.316 -0.316 -0.9487 228.3126 877.1854)">
		<stop  offset="0" style="stop-color:#262262"/>
		<stop  offset="0.5" style="stop-color:#662D91"/>
		<stop  offset="0.6733" style="stop-color:#642C8E"/>
		<stop  offset="0.7998" style="stop-color:#5C2A85"/>
		<stop  offset="0.911" style="stop-color:#4E2675"/>
		<stop  offset="1" style="stop-color:#3E2262"/>
	</linearGradient>
	<path class="st0" d="M168.3,393c0,0,8.1,4.1,46.9-5c8.7-2,14.4-3.3,19.8-2.5c0,0,4.8,5-5.9,9.6c-10.7,4.6-25.7,15.6-25.7,15.6
		s-21.6,5.5-23.7,5.4c-2-0.2-10.9,0.9-15.8-7C159,401.2,168.3,393,168.3,393z"/>
	
		<linearGradient id="SVGID_2_" gradientUnits="userSpaceOnUse" x1="86.5463" y1="464.421" x2="162.0766" y2="464.421" gradientTransform="matrix(0.9487 -0.316 -0.316 -0.9487 228.3126 877.1854)">
		<stop  offset="0" style="stop-color:#17224D"/>
		<stop  offset="0.1136" style="stop-color:#32235C;stop-opacity:0.8864"/>
		<stop  offset="0.2834" style="stop-color:#55256E;stop-opacity:0.7166"/>
		<stop  offset="0.4564" style="stop-color:#70267D;stop-opacity:0.5436"/>
		<stop  offset="0.6319" style="stop-color:#832687;stop-opacity:0.3681"/>
		<stop  offset="0.8111" style="stop-color:#8E278D;stop-opacity:0.1889"/>
		<stop  offset="1" style="stop-color:#92278F;stop-opacity:0"/>
	</linearGradient>
	<path class="st1" d="M168.3,393c0,0,8.1,4.1,46.9-5c8.6-2,14.4-3.3,19.8-2.5c0,0,4.8,5-5.9,9.6c-10.7,4.6-25.7,15.6-25.7,15.6
		s-21.6,5.5-23.7,5.4c-2-0.2-10.9,0.9-15.8-7C159,401.2,168.3,393,168.3,393z"/>
	
		<linearGradient id="SVGID_3_" gradientUnits="userSpaceOnUse" x1="86.639" y1="463.1082" x2="149.2958" y2="463.1082" gradientTransform="matrix(0.9487 -0.316 -0.316 -0.9487 228.3126 877.1854)">
		<stop  offset="0" style="stop-color:#92278F;stop-opacity:0"/>
		<stop  offset="0.1214" style="stop-color:#972D90;stop-opacity:0.1214"/>
		<stop  offset="0.429" style="stop-color:#9F3591;stop-opacity:0.429"/>
		<stop  offset="1" style="stop-color:#A13791"/>
	</linearGradient>
	<path class="st2" d="M192.5,405c-23,5.8-22.3,0.4-22.3,0.4s-2.6-4.1-5.1-8.6c-2.1,3.1-3.9,7.8-1.1,12.3c4.9,7.9,13.8,6.8,15.8,7
		c2,0.2,23.7-5.4,23.7-5.4s12-8.8,22.2-14C217.3,398.5,205.5,401.7,192.5,405z"/>
	
		<linearGradient id="SVGID_4_" gradientUnits="userSpaceOnUse" x1="79.7893" y1="489.3636" x2="180.4472" y2="489.3636" gradientTransform="matrix(0.9487 -0.316 -0.316 -0.9487 228.3126 877.1854)">
		<stop  offset="0" style="stop-color:#1C75BC"/>
		<stop  offset="0.5" style="stop-color:#00AEEF"/>
		<stop  offset="1" style="stop-color:#4FD5DF"/>
	</linearGradient>
	<path class="st3" d="M232.1,321.5c0,0,18.6,21-18.3,48.4c-39.6,29.4-49.9,46.5-33.6,46.2c0,0-22.8,5.6-26.4-16.2
		c-2.1-12.9,6.4-20.6,16.9-29.3C170.7,370.5,207.3,344.4,232.1,321.5z"/>
	
		<linearGradient id="SVGID_5_" gradientUnits="userSpaceOnUse" x1="116.6198" y1="386.1021" x2="116.6198" y2="426.2816" gradientTransform="matrix(0.9487 -0.316 -0.316 -0.9487 228.3126 877.1854)">
		<stop  offset="0" style="stop-color:#DA1C5C"/>
		<stop  offset="0.5" style="stop-color:#9E1F63"/>
		<stop  offset="1" style="stop-color:#9E1F63"/>
	</linearGradient>
	<path class="st4" d="M212.7,433.1c0,0-12.5,21.4,10.5,38.4c0.2,0.2,0.1,0.5-0.2,0.4c-3.7-1.2-9.5-3.8-14.3-6.4
		C194.4,457.6,205.5,441,212.7,433.1z"/>
	
		<linearGradient id="SVGID_6_" gradientUnits="userSpaceOnUse" x1="116.8218" y1="386.1021" x2="116.8218" y2="426.2816" gradientTransform="matrix(0.9487 -0.316 -0.316 -0.9487 228.3126 877.1854)">
		<stop  offset="0" style="stop-color:#DA1C5C"/>
		<stop  offset="0.9951" style="stop-color:#351840"/>
	</linearGradient>
	<path class="st5" d="M212.7,433.1c0,0-12.5,21.4,10.5,38.4c0.2,0.2,0.1,0.5-0.2,0.4c-3.7-1.2-12.3-4.5-15.9-7.9
		C195.1,452.8,205.5,441,212.7,433.1z"/>
	
		<linearGradient id="SVGID_7_" gradientUnits="userSpaceOnUse" x1="100.4422" y1="430.7467" x2="171.3089" y2="430.7467" gradientTransform="matrix(0.9487 -0.316 -0.316 -0.9487 228.3126 877.1854)">
		<stop  offset="0" style="stop-color:#EE2A7B"/>
		<stop  offset="0.5" style="stop-color:#DA1C5C"/>
		<stop  offset="1" style="stop-color:#9E1F63"/>
	</linearGradient>
	<path class="st6" d="M248.5,396.7c-0.8-10-14.5-11.3-14.5-11.3c8.2,4.5-17.1,9.9-35.6,30.6c-13.1,14.7-7.9,29.8-7.9,29.8l0,0
		c4.1,13.8,18.3,19.8,18.3,19.8C186.1,432.8,249.9,415.2,248.5,396.7z"/>
	
		<linearGradient id="SVGID_8_" gradientUnits="userSpaceOnUse" x1="100.4738" y1="430.8416" x2="171.4112" y2="430.8416" gradientTransform="matrix(0.9487 -0.316 -0.316 -0.9487 228.3126 877.1854)">
		<stop  offset="0" style="stop-color:#EE2A7B;stop-opacity:0"/>
		<stop  offset="0.1889" style="stop-color:#F13178;stop-opacity:0.3778"/>
		<stop  offset="0.5" style="stop-color:#F23477"/>
		<stop  offset="0.606" style="stop-color:#EE3376;stop-opacity:0.7881"/>
		<stop  offset="0.7168" style="stop-color:#E13073;stop-opacity:0.5664"/>
		<stop  offset="0.8299" style="stop-color:#CC2B6E;stop-opacity:0.3402"/>
		<stop  offset="0.9438" style="stop-color:#AF2367;stop-opacity:0.1123"/>
		<stop  offset="1" style="stop-color:#9E1F63;stop-opacity:0"/>
	</linearGradient>
	<path class="st7" d="M248.5,396.7c-0.4-10.2-14.5-11.4-14.5-11.4c8.2,4.5-17.1,9.9-35.6,30.6c-13.1,14.7-7.9,29.8-7.9,29.8l0,0
		c4.1,13.8,18.3,19.8,18.3,19.8C186.1,432.8,248.2,415.9,248.5,396.7z"/>
	
		<linearGradient id="SVGID_9_" gradientUnits="userSpaceOnUse" x1="79.8928" y1="489.3952" x2="179.2098" y2="489.3952" gradientTransform="matrix(0.9487 -0.316 -0.316 -0.9487 228.3126 877.1854)">
		<stop  offset="0" style="stop-color:#D9E8BC"/>
		<stop  offset="1" style="stop-color:#4FD5DF"/>
	</linearGradient>
	<path class="st8" d="M192.7,367.3c42.7-30.5,39.4-45.8,39.4-45.8c-21.9,20.9-61.3,49-61.3,49c-11,9.1-19,16.5-16.9,29.3
		c3.5,21.9,26.4,16.2,26.4,16.2C153.6,421.1,148.7,398.7,192.7,367.3z"/>
	<path class="st9" d="M232.1,321.5L232.1,321.5c0,0,3.3,15.3-39.3,45.8c-33.7,24.1-38.7,42.8-27.4,48c3.7,1.4,7.6,1.5,10.5,1.4
		c1.4-0.1,2.8-0.3,4.3-0.6c-16.3,0.3-6-16.8,33.6-46.2C250.7,342.5,232.1,321.5,232.1,321.5z"/>
	
		<linearGradient id="SVGID_10_" gradientUnits="userSpaceOnUse" x1="100.4738" y1="430.8416" x2="167.7247" y2="430.8416" gradientTransform="matrix(0.9487 -0.316 -0.316 -0.9487 228.3126 877.1854)">
		<stop  offset="0" style="stop-color:#EE2A7B;stop-opacity:0"/>
		<stop  offset="0.1864" style="stop-color:#D92775;stop-opacity:0.1864"/>
		<stop  offset="0.524" style="stop-color:#B9236B;stop-opacity:0.524"/>
		<stop  offset="0.8073" style="stop-color:#A52065;stop-opacity:0.8073"/>
		<stop  offset="1" style="stop-color:#9E1F63"/>
	</linearGradient>
	<path class="st10" d="M238.5,399c7.6-5.6,3.7-10.3,3.3-10.7c-3.9-2.6-7.8-3-7.8-3c8.2,4.5-17.1,9.9-35.6,30.6
		c-13.1,14.7-7.9,29.8-7.9,29.8l0,0c4.1,13.8,18.3,19.8,18.3,19.8C166.8,441,230.3,405.1,238.5,399z"/>
	
		<linearGradient id="SVGID_11_" gradientUnits="userSpaceOnUse" x1="103.1618" y1="430.8416" x2="171.4344" y2="430.8416" gradientTransform="matrix(0.9487 -0.316 -0.316 -0.9487 228.3126 877.1854)">
		<stop  offset="0" style="stop-color:#EE2A7B;stop-opacity:0"/>
		<stop  offset="4.750010e-002" style="stop-color:#F25797;stop-opacity:9.500021e-002"/>
		<stop  offset="0.1021" style="stop-color:#F583B2;stop-opacity:0.2041"/>
		<stop  offset="0.1591" style="stop-color:#F8A9CA;stop-opacity:0.3182"/>
		<stop  offset="0.2179" style="stop-color:#FBC9DD;stop-opacity:0.4358"/>
		<stop  offset="0.2791" style="stop-color:#FDE1EC;stop-opacity:0.5582"/>
		<stop  offset="0.3437" style="stop-color:#FEF2F7;stop-opacity:0.6873"/>
		<stop  offset="0.4138" style="stop-color:#FFFCFD;stop-opacity:0.8276"/>
		<stop  offset="0.5" style="stop-color:#FFFFFF"/>
		<stop  offset="0.5637" style="stop-color:#FDFBFC;stop-opacity:0.8726"/>
		<stop  offset="0.6304" style="stop-color:#F8EEF3;stop-opacity:0.7391"/>
		<stop  offset="0.6985" style="stop-color:#EFD9E5;stop-opacity:0.6029"/>
		<stop  offset="0.7676" style="stop-color:#E2BCD0;stop-opacity:0.4648"/>
		<stop  offset="0.8374" style="stop-color:#D296B6;stop-opacity:0.3252"/>
		<stop  offset="0.9078" style="stop-color:#BE6896;stop-opacity:0.1843"/>
		<stop  offset="0.9775" style="stop-color:#A63270;stop-opacity:4.495645e-002"/>
		<stop  offset="1" style="stop-color:#9E1F63;stop-opacity:0"/>
	</linearGradient>
	<path class="st11" d="M234,385.3c0,0,3.9,0.4,7.8,3c0.4,0.4,4.3,5.1-3.3,10.7c-8.2,6.1-72.7,40.8-29.7,66.5
		c-22.7-32.7,39.4-49.7,39.7-68.9C248.1,386.5,234,385.3,234,385.3z"/>
	<g>
		<path d="M35.8,414.4l-5-33.3l-0.3-2.2h-0.4v35.5h-7.2v-52.9h9.5l4.6,24.2l0.4,2.8h0.1l0.4-2.8l4.6-24.2H52v52.9h-7.2v-35.5h-0.4
			l-0.3,2.2l-5,33.3H35.8z"/>
		<path d="M66.9,378.4l0.2,0.5h0.1l0.2-0.5l3.9-16.9H79l-8,30.4v22.5h-7.8v-22.5l-7.8-30.4H63L66.9,378.4z"/>
		<path d="M94.8,380.5v-8.1c0-1.4-0.3-2.4-1-3.3c-0.4-0.4-0.9-0.6-1.6-0.6c-1.4,0-2,1-2.3,1.9c-0.2,0.6-0.3,1.2-0.3,1.9v31.8
			c0,1.5,0.4,2.5,1.1,3.3c0.4,0.4,0.9,0.6,1.5,0.6c1.4,0,2-0.9,2.3-1.9c0.2-0.5,0.3-1.2,0.3-1.9v-9.6h-3.1V388h10.9v26.4H98l-1-2.5
			c-1.4,1.8-3.5,3.1-6,3.1s-4.2-0.6-5.5-1.8c-1.3-1.1-2.2-2.4-2.7-3.9c-0.6-1.7-0.9-3.6-0.9-5.8v-31.2c0.1-2.1,0.5-4,1.3-5.7
			c0.6-1.4,1.6-2.9,3-4c1.4-1.1,3.5-1.8,6-1.8s4.5,0.7,6,1.8c1.5,1.1,2.4,2.5,3.1,4c0.8,1.7,1.2,3.6,1.3,5.7v8.2H94.8z"/>
		<path d="M108.3,361.5h17.8v8H116v13.9h7.2v8.5H116v14.5h10v8h-17.7V361.5z"/>
		<path d="M130.4,361.5h7.8v45.7h10.3v7.2h-18.1V361.5z"/>
	</g>
	<g>
		<path d="M260.4,416.8v-52.9h6.8c4.6,0,8.2,0.9,10.6,3.1s3.6,5.7,3.6,10.9c0,2.5-0.2,4.4-1,6.1c-0.8,1.7-2,3.2-3.8,4.8
			c1.9,1.1,3.4,3.1,4.5,6.5c0.6,1.7,0.9,3.8,0.9,6.5c0,4-0.7,7.5-2.5,10.2c-1.8,2.7-4.9,4.5-9.5,4.8H260.4z M268.2,385.7
			c0.6,0,2.2,0.1,3.5-0.8c1.3-0.9,2.3-2.6,2.3-6.3c0-3.7-1-5.4-2.3-6.3c-1.3-0.9-2.8-0.8-3.5-0.8V385.7z M268.2,409.1
			c0.6,0,2.2,0.1,3.5-0.8c1.3-0.9,2.3-3,2.3-7.3c0-4.3-1-6.4-2.3-7.3c-1.3-0.9-2.8-0.8-3.5-0.8V409.1z"/>
		<path d="M286.6,363.9h17.8v8h-10v13.9h7.2v8.5h-7.2v14.5h10v8h-17.8V363.9z"/>
		<path d="M322.6,416.8l-4-22.3h-2.1v22.3h-7.8v-52.9h7.8c9.3,0,13.2,5.3,13.2,15.3c0,5.3-1.4,10-4.3,12l5,25.6
			C330.4,416.8,322.6,416.8,322.6,416.8z M316.5,387.3c1.1,0,2.5-0.1,3.7-1.2c1.2-1,2.1-3,2.1-6.7c0-3.7-0.9-5.8-2.1-6.8
			s-2.6-1.1-3.7-1.1V387.3z"/>
		<path d="M347.2,382.9v-8.1c0-1.4-0.3-2.4-1-3.3c-0.4-0.4-0.9-0.6-1.6-0.6c-1.4,0-2,1-2.3,1.9c-0.2,0.6-0.3,1.2-0.3,1.9v31.8
			c0,1.5,0.4,2.5,1.1,3.3c0.4,0.4,0.9,0.6,1.5,0.6c1.4,0,2-0.9,2.3-1.9c0.2-0.5,0.3-1.2,0.3-1.9V397h-3.1v-6.6H355v26.4h-4.6
			l-0.9-2.5c-1.4,1.8-3.5,3.1-6,3.1s-4.2-0.6-5.5-1.8c-1.3-1.1-2.2-2.4-2.7-3.9c-0.6-1.7-0.9-3.6-0.9-5.8v-31.2
			c0.1-2.1,0.5-4,1.3-5.7c0.6-1.4,1.6-2.9,3-4s3.5-1.8,6-1.8s4.5,0.7,6,1.8c1.4,1.1,2.4,2.5,3.1,4c0.8,1.7,1.2,3.6,1.3,5.7v8.1h-7.9
			V382.9z"/>
		<path d="M373.5,378.1c0-1.7-0.1-3.7-0.6-5.2c-0.5-1.4-1.3-2.4-2.5-2.4c-2,0.1-2.7,2.2-2.7,5.3c0,1.8,0.8,3.7,1.9,5.7
			c1.2,2,2.7,4.1,4.2,6.3c1.8,2.7,3.6,5.4,5,8.1c1.4,2.7,2.3,5.4,2.3,8.3c0,3.5-0.6,6.8-2.2,9.3s-4.3,4-8.6,4c-5,0-7.8-1.9-9.4-4.8
			c-1.6-2.9-1.9-6.7-1.9-10.7l7.6-0.7c0,2.2,0.1,4.5,0.6,6.1c0.5,1.7,1.4,2.9,3,2.9c2.3,0,3.2-2.4,3.2-5.8c0-1.7-0.9-3.7-2-5.8
			c-0.6-1-1.3-2.1-2-3.2c-1.5-2.2-3.2-4.6-4.9-7.3c-1.7-2.7-3-5.4-3.8-8.2c-0.4-1.4-0.6-2.8-0.6-4.2c0-2.9,0.6-6,2.3-8.4
			c1.7-2.3,4.2-4,7.8-4c4.7-0.1,7.4,1.9,8.9,4.7c1.5,2.9,1.9,6.4,1.9,9.4L373.5,378.1z"/>
		<path d="M382.6,371.9v-8H405v8h-7.3v44.9h-7.8v-44.9H382.6z"/>
		<path d="M422,416.8l-4-22.3h-2.1v22.3h-7.8v-52.9h7.8c9.3,0,13.2,5.3,13.2,15.3c0,5.3-1.4,10-4.3,12l5,25.6
			C429.8,416.8,422,416.8,422,416.8z M415.8,387.3c1.1,0,2.5-0.1,3.7-1.2c1.2-1,2.1-3,2.1-6.7c0-3.7-0.9-5.8-2.1-6.8
			s-2.6-1.1-3.7-1.1V387.3z"/>
		<path d="M434.1,363.9h17.8v8h-10v13.9h7.2v8.5h-7.2v14.5h10v8h-17.8V363.9z"/>
		<path d="M469,378.1c0-1.7-0.1-3.7-0.6-5.2c-0.5-1.4-1.3-2.4-2.5-2.4c-2,0.1-2.7,2.2-2.7,5.3c0,1.8,0.8,3.7,1.9,5.7
			c1.2,2,2.7,4.1,4.2,6.3c1.8,2.7,3.6,5.4,5,8.1c1.4,2.7,2.3,5.4,2.3,8.3c0,3.5-0.6,6.8-2.2,9.3s-4.3,4-8.6,4c-5,0-7.8-1.9-9.4-4.8
			c-1.6-2.9-1.9-6.7-1.9-10.7l7.6-0.7c0,2.2,0.1,4.5,0.6,6.1c0.5,1.7,1.4,2.9,3,2.9c2.3,0,3.2-2.4,3.2-5.8c0-1.7-0.9-3.7-2-5.8
			c-0.6-1-1.3-2.1-2-3.2c-1.5-2.2-3.2-4.6-4.9-7.3c-1.7-2.7-3-5.4-3.8-8.2c-0.4-1.4-0.6-2.8-0.6-4.2c0-2.9,0.6-6,2.3-8.4
			c1.7-2.3,4.2-4,7.8-4c4.7-0.1,7.4,1.9,8.9,4.7c1.5,2.9,1.9,6.4,1.9,9.4L469,378.1z"/>
		<path d="M493.7,378.1c0-1.7-0.1-3.7-0.6-5.2c-0.5-1.4-1.3-2.4-2.5-2.4c-2,0.1-2.7,2.2-2.7,5.3c0,1.8,0.8,3.7,1.9,5.7
			c1.2,2,2.7,4.1,4.2,6.3c1.8,2.7,3.6,5.4,5,8.1c1.4,2.7,2.3,5.4,2.3,8.3c0,3.5-0.6,6.8-2.2,9.3s-4.3,4-8.6,4c-5,0-7.8-1.9-9.4-4.8
			c-1.6-2.9-1.9-6.7-1.9-10.7l7.6-0.7c0,2.2,0.1,4.5,0.6,6.1c0.5,1.7,1.4,2.9,3,2.9c2.3,0,3.2-2.4,3.2-5.8c0-1.7-0.9-3.7-2-5.8
			c-0.6-1-1.3-2.1-2-3.2c-1.5-2.2-3.2-4.6-4.9-7.3c-1.7-2.7-3-5.4-3.8-8.2c-0.4-1.4-0.6-2.8-0.6-4.2c0-2.9,0.6-6,2.3-8.4
			c1.7-2.3,4.2-4,7.8-4c4.7-0.1,7.4,1.9,8.9,4.7c1.5,2.9,1.9,6.4,1.9,9.4L493.7,378.1z"/>
		<path d="M505.5,363.9h17.8v8h-10v13.9h7.2v8.5h-7.2v14.5h10v8h-17.8V363.9z"/>
		<path d="M541.5,416.8l-4-22.3h-2.1v22.3h-7.8v-52.9h7.8c9.3,0,13.2,5.3,13.2,15.3c0,5.3-1.4,10-4.3,12l5,25.6
			C549.3,416.8,541.5,416.8,541.5,416.8z M535.4,387.3c1.1,0,2.5-0.1,3.7-1.2c1.2-1,2.1-3,2.1-6.7c0-3.7-0.9-5.8-2.1-6.8
			s-2.6-1.1-3.7-1.1V387.3z"/>
	</g>
	<path d="M575.2,367.6h-5.4l-1.5,6.9h3.6l-0.8,4h-3.6l-2.4,11.5h-3.9l5.6-26.5h9.3L575.2,367.6z"/>
	<path d="M579,390l0.3-11.2h-1L576,390h-4l5.6-26.5h3.9c4.6,0,6,2.6,5,7.6c-0.6,2.6-1.8,5-3.5,6l-0.2,12.8H579V390z M579,375.3
		c0.5,0,1.3,0,1.9-0.6c0.7-0.5,1.4-1.5,1.8-3.3c0.4-1.9,0.1-2.8-0.3-3.4c-0.5-0.5-1.2-0.5-1.7-0.5L579,375.3z"/>
	<path d="M596.3,384.6c-0.3,1.1-0.7,2.1-1.3,2.9c-0.5,0.7-1.2,1.4-2,1.9c-0.9,0.6-1.9,0.9-3.2,0.9s-2.2-0.3-2.8-0.9
		c-0.6-0.5-0.9-1.2-1.1-1.9c-0.3-0.8-0.3-1.8,0-2.9l3.3-15.6c0.3-1,0.6-2,1.2-2.8c0.5-0.7,1.1-1.4,1.9-2c0.8-0.5,1.9-0.9,3.2-0.9
		s2.2,0.4,2.8,0.9s1,1.3,1.1,2c0.3,0.8,0.3,1.7,0.1,2.8L596.3,384.6z M595.7,369c0.1-0.7,0.1-1.3-0.2-1.7c-0.1-0.2-0.4-0.3-0.7-0.3
		c-0.7,0-1.1,0.5-1.4,1c-0.1,0.3-0.3,0.6-0.3,1l-3.3,15.6c-0.2,0.7-0.1,1.3,0.2,1.7c0.1,0.2,0.4,0.3,0.7,0.3c0.7,0,1.1-0.4,1.4-1
		c0.1-0.2,0.3-0.5,0.4-1L595.7,369z"/>
	<path d="M604.8,376.2l-0.1-1.2h-0.2l-3.2,15h-3.6l5.6-26.5h3.5l0.8,13.8l0.1,1.2h0.2l3.2-15h3.6l-5.6,26.5h-3.5L604.8,376.2z"/>
	<path d="M615.4,367.6l0.9-4h11.2l-0.9,4h-3.7l-4.8,22.5h-3.9l4.8-22.5H615.4z"/>
	<path d="M625.6,378.6h5.2l-0.7,3.4h-5.2L625.6,378.6z"/>
	<path d="M636.8,363.6h8.9l-0.9,4h-5l-1.5,6.9h3.6l-0.9,4.2h-3.6l-1.5,7.3h5l-0.8,4h-8.9L636.8,363.6z"/>
	<path d="M649.2,376.2l-0.1-1.2h-0.2l-3.2,15h-3.6l5.6-26.5h3.5l0.8,13.8l0.1,1.2h0.2l3.2-15h3.6l-5.6,26.5H650L649.2,376.2z"/>
	<path d="M656.4,390l5.6-26.5h3.1c3.6,0,5.3,0.7,6,2.7c0.6,2,0,5.3-1.1,10.5c-1.1,5.2-1.9,8.5-3.4,10.5c-1.5,2-3.6,2.7-7.2,2.7h-3
		V390z M661.1,386.1c1.3,0,2.1-0.1,2.8-1.4c0.6-1.2,1.1-3.3,1.5-5c0.2-0.8,0.4-1.8,0.6-2.9c0.2-1.1,0.4-2.1,0.6-2.9
		c0.4-1.7,0.8-3.7,0.6-5c-0.1-1.3-0.8-1.4-2.2-1.4L661.1,386.1z"/>
	<path d="M561.2,419v-26.4h3.1c3.6,0,5.5,0.7,6.6,2.7c1,2,1.2,5.3,1.2,10.5c0,5.2-0.1,8.5-1.2,10.5c-1,2-3,2.7-6.6,2.7
		C564.3,419,561.2,419,561.2,419z M565.1,415.1c1.3,0,2.1-0.1,2.5-1.4c0.2-0.6,0.3-1.5,0.4-2.8c0-1.3,0-3,0-5.1c0-2.2,0-3.9,0-5.1
		c0-1.2-0.2-2.2-0.4-2.8c-0.4-1.3-1.2-1.4-2.5-1.4V415.1z"/>
	<path d="M574.6,392.6h8.9v4h-5v6.9h3.6v4.2h-3.6v7.3h5v4h-8.9V392.6z"/>
	<path d="M592.7,392.6h3.8l-4,26.5h-3.9l-4-26.5h3.8l1.9,14.5l0.1,1.1h0.2l0.1-1.1L592.7,392.6z"/>
	<path d="M598.2,392.6h8.9v4h-5v6.9h3.6v4.2h-3.6v7.3h5v4h-8.9V392.6z"/>
	<path d="M609.3,392.6h3.9v22.9h5.1v3.6h-9V392.6z"/>
	<path d="M630,413.6c0,1.1-0.3,2.1-0.6,2.9c-0.3,0.7-0.8,1.4-1.5,1.9c-0.7,0.6-1.7,0.9-3,0.9s-2.3-0.3-3-0.9
		c-0.7-0.5-1.2-1.2-1.5-1.9c-0.4-0.8-0.6-1.8-0.6-2.9V398c0-1,0.3-2,0.6-2.8c0.3-0.7,0.8-1.4,1.5-2c0.7-0.6,1.7-0.9,3-0.9
		s2.3,0.4,3,0.9s1.2,1.3,1.5,2c0.4,0.8,0.6,1.8,0.6,2.8V413.6z M626.1,398c0-0.7-0.1-1.2-0.5-1.7c-0.2-0.2-0.5-0.3-0.8-0.3
		c-0.7,0-1,0.5-1.2,1c-0.1,0.3-0.1,0.6-0.1,1v15.6c0,0.8,0.2,1.3,0.5,1.7c0.2,0.2,0.4,0.3,0.8,0.3c0.7,0,1-0.4,1.2-1
		c0.1-0.3,0.1-0.6,0.1-1V398z"/>
	<path d="M632.6,392.6h3.9c1.7,0,3.4,0.4,4.7,1.7c1.3,1.2,2.2,3.2,2.2,6.3c0,3-0.9,5-2.2,6.2c-1.3,1.2-3,1.7-4.7,1.7v10.6h-3.9
		V392.6z M636.5,404.5c1.2,0,1.9-0.2,2.4-0.8c0.4-0.6,0.5-1.5,0.5-3s-0.1-2.5-0.5-3.2c-0.4-0.6-1.2-0.9-2.4-0.9V404.5z"/>
	<path d="M645.3,392.6h8.9v4h-5v6.9h3.6v4.2h-3.6v7.3h5v4h-8.9V392.6z"/>
	<path d="M663.3,419l-2-11.2h-1V419h-3.9v-26.4h3.9c4.6,0,6.6,2.6,6.6,7.6c0,2.6-0.7,5-2.2,6l2.5,12.8H663.3z M660.2,404.3
		c0.5,0,1.3-0.1,1.8-0.6s1-1.5,1-3.3c0-1.8-0.5-2.9-1-3.4s-1.3-0.5-1.8-0.5V404.3z"/>
	
		<linearGradient id="SVGID_12_" gradientUnits="userSpaceOnUse" x1="-122.7282" y1="213.0355" x2="-47.198" y2="213.0355" gradientTransform="matrix(0.9487 -0.316 -0.316 -0.9487 228.3126 877.1854)">
		<stop  offset="0" style="stop-color:#262262"/>
		<stop  offset="0.5" style="stop-color:#662D91"/>
		<stop  offset="0.6733" style="stop-color:#642C8E"/>
		<stop  offset="0.7998" style="stop-color:#5C2A85"/>
		<stop  offset="0.911" style="stop-color:#4E2675"/>
		<stop  offset="1" style="stop-color:#3E2262"/>
	</linearGradient>
	<path class="st12" d="M49.2,697.6c0,0,8.1,4.1,46.9-5c8.7-2,14.4-3.3,19.8-2.5c0,0,4.8,5-5.9,9.6c-10.7,4.6-25.7,15.6-25.7,15.6
		s-21.6,5.5-23.7,5.4c-2-0.2-10.9,0.9-15.8-7C39.9,705.8,49.2,697.6,49.2,697.6z"/>
	
		<linearGradient id="SVGID_13_" gradientUnits="userSpaceOnUse" x1="-122.7282" y1="213.0355" x2="-47.198" y2="213.0355" gradientTransform="matrix(0.9487 -0.316 -0.316 -0.9487 228.3126 877.1854)">
		<stop  offset="0" style="stop-color:#17224D"/>
		<stop  offset="0.1136" style="stop-color:#32235C;stop-opacity:0.8864"/>
		<stop  offset="0.2834" style="stop-color:#55256E;stop-opacity:0.7166"/>
		<stop  offset="0.4564" style="stop-color:#70267D;stop-opacity:0.5436"/>
		<stop  offset="0.6319" style="stop-color:#832687;stop-opacity:0.3681"/>
		<stop  offset="0.8111" style="stop-color:#8E278D;stop-opacity:0.1889"/>
		<stop  offset="1" style="stop-color:#92278F;stop-opacity:0"/>
	</linearGradient>
	<path class="st13" d="M49.2,697.6c0,0,8.1,4.1,46.9-5c8.6-2,14.4-3.3,19.8-2.5c0,0,4.8,5-5.9,9.6c-10.7,4.6-25.7,15.6-25.7,15.6
		s-21.6,5.5-23.7,5.4c-2-0.2-10.9,0.9-15.8-7C39.9,705.8,49.2,697.6,49.2,697.6z"/>
	
		<linearGradient id="SVGID_14_" gradientUnits="userSpaceOnUse" x1="-122.6356" y1="211.7226" x2="-59.9787" y2="211.7226" gradientTransform="matrix(0.9487 -0.316 -0.316 -0.9487 228.3126 877.1854)">
		<stop  offset="0" style="stop-color:#92278F;stop-opacity:0"/>
		<stop  offset="0.1214" style="stop-color:#972D90;stop-opacity:0.1214"/>
		<stop  offset="0.429" style="stop-color:#9F3591;stop-opacity:0.429"/>
		<stop  offset="1" style="stop-color:#A13791"/>
	</linearGradient>
	<path class="st14" d="M73.4,709.6c-23,5.8-22.3,0.4-22.3,0.4s-2.6-4.1-5.1-8.6c-2.1,3.1-3.9,7.8-1.1,12.3c4.9,7.9,13.8,6.8,15.8,7
		c2,0.2,23.7-5.4,23.7-5.4s12-8.8,22.2-14C98.2,703.1,86.4,706.3,73.4,709.6z"/>
	
		<linearGradient id="SVGID_15_" gradientUnits="userSpaceOnUse" x1="-129.4852" y1="237.978" x2="-28.8273" y2="237.978" gradientTransform="matrix(0.9487 -0.316 -0.316 -0.9487 228.3126 877.1854)">
		<stop  offset="0" style="stop-color:#1C75BC"/>
		<stop  offset="0.5" style="stop-color:#00AEEF"/>
		<stop  offset="1" style="stop-color:#4FD5DF"/>
	</linearGradient>
	<path class="st15" d="M113,626.1c0,0,18.6,21-18.3,48.4c-39.6,29.4-49.9,46.5-33.6,46.2c0,0-22.8,5.6-26.4-16.2
		c-2.1-12.9,6.4-20.6,16.9-29.3C51.6,675.1,88.2,649,113,626.1z"/>
	
		<linearGradient id="SVGID_16_" gradientUnits="userSpaceOnUse" x1="-92.6548" y1="134.7166" x2="-92.6548" y2="174.8961" gradientTransform="matrix(0.9487 -0.316 -0.316 -0.9487 228.3126 877.1854)">
		<stop  offset="0" style="stop-color:#DA1C5C"/>
		<stop  offset="0.5" style="stop-color:#9E1F63"/>
		<stop  offset="1" style="stop-color:#9E1F63"/>
	</linearGradient>
	<path class="st16" d="M93.6,737.7c0,0-12.5,21.4,10.5,38.4c0.2,0.2,0.1,0.5-0.2,0.4c-3.7-1.2-9.5-3.8-14.3-6.4
		C75.3,762.2,86.4,745.6,93.6,737.7z"/>
	
		<linearGradient id="SVGID_17_" gradientUnits="userSpaceOnUse" x1="-92.4527" y1="134.7166" x2="-92.4527" y2="174.8961" gradientTransform="matrix(0.9487 -0.316 -0.316 -0.9487 228.3126 877.1854)">
		<stop  offset="0" style="stop-color:#DA1C5C"/>
		<stop  offset="0.9951" style="stop-color:#351840"/>
	</linearGradient>
	<path class="st17" d="M93.6,737.7c0,0-12.5,21.4,10.5,38.4c0.2,0.2,0.1,0.5-0.2,0.4c-3.7-1.2-12.3-4.5-15.9-7.9
		C76,757.4,86.4,745.6,93.6,737.7z"/>
	
		<linearGradient id="SVGID_18_" gradientUnits="userSpaceOnUse" x1="-108.8323" y1="179.3612" x2="-37.9656" y2="179.3612" gradientTransform="matrix(0.9487 -0.316 -0.316 -0.9487 228.3126 877.1854)">
		<stop  offset="0" style="stop-color:#EE2A7B"/>
		<stop  offset="0.5" style="stop-color:#DA1C5C"/>
		<stop  offset="1" style="stop-color:#9E1F63"/>
	</linearGradient>
	<path class="st18" d="M129.4,701.3c-0.8-10-14.5-11.3-14.5-11.3c8.2,4.5-17.1,9.9-35.6,30.6c-13.1,14.7-7.9,29.8-7.9,29.8l0,0
		c4.1,13.8,18.3,19.8,18.3,19.8C67,737.4,130.8,719.8,129.4,701.3z"/>
	
		<linearGradient id="SVGID_19_" gradientUnits="userSpaceOnUse" x1="-108.8007" y1="179.456" x2="-37.8633" y2="179.456" gradientTransform="matrix(0.9487 -0.316 -0.316 -0.9487 228.3126 877.1854)">
		<stop  offset="0" style="stop-color:#EE2A7B;stop-opacity:0"/>
		<stop  offset="0.1889" style="stop-color:#F13178;stop-opacity:0.3778"/>
		<stop  offset="0.5" style="stop-color:#F23477"/>
		<stop  offset="0.606" style="stop-color:#EE3376;stop-opacity:0.7881"/>
		<stop  offset="0.7168" style="stop-color:#E13073;stop-opacity:0.5664"/>
		<stop  offset="0.8299" style="stop-color:#CC2B6E;stop-opacity:0.3402"/>
		<stop  offset="0.9438" style="stop-color:#AF2367;stop-opacity:0.1123"/>
		<stop  offset="1" style="stop-color:#9E1F63;stop-opacity:0"/>
	</linearGradient>
	<path class="st19" d="M129.4,701.3c-0.4-10.2-14.5-11.4-14.5-11.4c8.2,4.5-17.1,9.9-35.6,30.6c-13.1,14.7-7.9,29.8-7.9,29.8l0,0
		c4.1,13.8,18.3,19.8,18.3,19.8C67,737.4,129.1,720.5,129.4,701.3z"/>
	
		<linearGradient id="SVGID_20_" gradientUnits="userSpaceOnUse" x1="-129.3817" y1="238.0097" x2="-30.0647" y2="238.0097" gradientTransform="matrix(0.9487 -0.316 -0.316 -0.9487 228.3126 877.1854)">
		<stop  offset="0" style="stop-color:#D9E8BC"/>
		<stop  offset="1" style="stop-color:#4FD5DF"/>
	</linearGradient>
	<path class="st20" d="M73.6,671.9c42.7-30.5,39.4-45.8,39.4-45.8c-21.9,20.9-61.3,49-61.3,49c-11,9.1-19,16.5-16.9,29.3
		c3.5,21.9,26.4,16.2,26.4,16.2C34.5,725.7,29.6,703.3,73.6,671.9z"/>
	<path class="st9" d="M113,626.1L113,626.1c0,0,3.3,15.3-39.3,45.8C40,696,35,714.7,46.3,719.9c3.7,1.4,7.6,1.5,10.5,1.4
		c1.4-0.1,2.8-0.3,4.3-0.6c-16.3,0.3-6-16.8,33.6-46.2C131.6,647.1,113,626.1,113,626.1z"/>
	
		<linearGradient id="SVGID_21_" gradientUnits="userSpaceOnUse" x1="-108.8007" y1="179.456" x2="-41.5498" y2="179.456" gradientTransform="matrix(0.9487 -0.316 -0.316 -0.9487 228.3126 877.1854)">
		<stop  offset="0" style="stop-color:#EE2A7B;stop-opacity:0"/>
		<stop  offset="0.1864" style="stop-color:#D92775;stop-opacity:0.1864"/>
		<stop  offset="0.524" style="stop-color:#B9236B;stop-opacity:0.524"/>
		<stop  offset="0.8073" style="stop-color:#A52065;stop-opacity:0.8073"/>
		<stop  offset="1" style="stop-color:#9E1F63"/>
	</linearGradient>
	<path class="st21" d="M119.4,703.6c7.6-5.6,3.7-10.3,3.3-10.7c-3.9-2.6-7.8-3-7.8-3c8.2,4.5-17.1,9.9-35.6,30.6
		c-13.1,14.7-7.9,29.8-7.9,29.8l0,0c4.1,13.8,18.3,19.8,18.3,19.8C47.7,745.6,111.2,709.7,119.4,703.6z"/>
	
		<linearGradient id="SVGID_22_" gradientUnits="userSpaceOnUse" x1="-106.1128" y1="179.456" x2="-37.8401" y2="179.456" gradientTransform="matrix(0.9487 -0.316 -0.316 -0.9487 228.3126 877.1854)">
		<stop  offset="0" style="stop-color:#EE2A7B;stop-opacity:0"/>
		<stop  offset="4.750010e-002" style="stop-color:#F25797;stop-opacity:9.500021e-002"/>
		<stop  offset="0.1021" style="stop-color:#F583B2;stop-opacity:0.2041"/>
		<stop  offset="0.1591" style="stop-color:#F8A9CA;stop-opacity:0.3182"/>
		<stop  offset="0.2179" style="stop-color:#FBC9DD;stop-opacity:0.4358"/>
		<stop  offset="0.2791" style="stop-color:#FDE1EC;stop-opacity:0.5582"/>
		<stop  offset="0.3437" style="stop-color:#FEF2F7;stop-opacity:0.6873"/>
		<stop  offset="0.4138" style="stop-color:#FFFCFD;stop-opacity:0.8276"/>
		<stop  offset="0.5" style="stop-color:#FFFFFF"/>
		<stop  offset="0.5637" style="stop-color:#FDFBFC;stop-opacity:0.8726"/>
		<stop  offset="0.6304" style="stop-color:#F8EEF3;stop-opacity:0.7391"/>
		<stop  offset="0.6985" style="stop-color:#EFD9E5;stop-opacity:0.6029"/>
		<stop  offset="0.7676" style="stop-color:#E2BCD0;stop-opacity:0.4648"/>
		<stop  offset="0.8374" style="stop-color:#D296B6;stop-opacity:0.3252"/>
		<stop  offset="0.9078" style="stop-color:#BE6896;stop-opacity:0.1843"/>
		<stop  offset="0.9775" style="stop-color:#A63270;stop-opacity:4.495645e-002"/>
		<stop  offset="1" style="stop-color:#9E1F63;stop-opacity:0"/>
	</linearGradient>
	<path class="st22" d="M114.9,689.9c0,0,3.9,0.4,7.8,3c0.4,0.4,4.3,5.1-3.3,10.7c-8.2,6.1-72.7,40.8-29.7,66.5
		c-22.7-32.7,39.4-49.7,39.7-68.9C129,691.1,114.9,689.9,114.9,689.9z"/>
	<g>
		<path class="st23" d="M158,694.7l-5-33.3l-0.3-2.2h-0.4v35.5h-7.2v-52.9h9.5l4.6,24.2l0.4,2.8h0.1l0.4-2.8l4.6-24.2h9.5v52.9H167
			v-35.5h-0.4l-0.3,2.2l-5,33.3H158z"/>
		<path class="st23" d="M189.1,658.7l0.2,0.5h0.1l0.2-0.5l3.9-16.9h7.7l-8,30.4v22.5h-7.8v-22.5l-7.8-30.4h7.6L189.1,658.7z"/>
		<path class="st23" d="M217,660.8v-8.1c0-1.4-0.3-2.4-1-3.3c-0.4-0.4-0.9-0.6-1.6-0.6c-1.4,0-2,1-2.3,1.9c-0.2,0.6-0.3,1.2-0.3,1.9
			v31.8c0,1.5,0.4,2.5,1.1,3.3c0.4,0.4,0.9,0.6,1.5,0.6c1.4,0,2-0.9,2.3-1.9c0.2-0.5,0.3-1.2,0.3-1.9v-9.6h-3.1v-6.6h10.9v26.4h-4.6
			l-1-2.5c-1.4,1.8-3.5,3.1-6,3.1s-4.2-0.6-5.5-1.8c-1.3-1.1-2.2-2.4-2.7-3.9c-0.6-1.7-0.9-3.6-0.9-5.8v-31.2c0.1-2.1,0.5-4,1.3-5.7
			c0.6-1.4,1.6-2.9,3-4c1.4-1.1,3.5-1.8,6-1.8s4.5,0.7,6,1.8c1.5,1.1,2.4,2.5,3.1,4c0.8,1.7,1.2,3.6,1.3,5.7v8.2H217z"/>
		<path class="st23" d="M230.5,641.8h17.8v8h-10.1v13.9h7.2v8.5h-7.2v14.5h10v8h-17.7V641.8z"/>
		<path class="st23" d="M252.6,641.8h7.8v45.7h10.3v7.2h-18.1V641.8z"/>
	</g>
	<g>
		<path class="st23" d="M145.1,755.5v-52.9h6.8c4.6,0,8.2,0.9,10.6,3.1s3.6,5.7,3.6,10.9c0,2.5-0.2,4.4-1,6.1s-2,3.2-3.8,4.8
			c1.9,1.1,3.4,3.1,4.5,6.5c0.6,1.7,0.9,3.8,0.9,6.5c0,4-0.7,7.5-2.5,10.2s-4.9,4.5-9.5,4.8H145.1z M152.9,724.4
			c0.6,0,2.2,0.1,3.5-0.8c1.3-0.9,2.3-2.6,2.3-6.3c0-3.7-1-5.4-2.3-6.3c-1.3-0.9-2.8-0.8-3.5-0.8V724.4z M152.9,747.8
			c0.6,0,2.2,0.1,3.5-0.8c1.3-0.9,2.3-3,2.3-7.3s-1-6.4-2.3-7.3c-1.3-0.9-2.8-0.8-3.5-0.8V747.8z"/>
		<path class="st23" d="M171.3,702.6h17.8v8h-10v13.9h7.2v8.5h-7.2v14.5h10v8h-17.8V702.6z"/>
		<path class="st23" d="M207.3,755.5l-4-22.3h-2.1v22.3h-7.8v-52.9h7.8c9.3,0,13.2,5.3,13.2,15.3c0,5.3-1.4,10-4.3,12l5,25.6
			C215.1,755.5,207.3,755.5,207.3,755.5z M201.2,726c1.1,0,2.5-0.1,3.7-1.2c1.2-1,2.1-3,2.1-6.7s-0.9-5.8-2.1-6.8s-2.6-1.1-3.7-1.1
			V726z"/>
		<path class="st23" d="M231.9,721.6v-8.1c0-1.4-0.3-2.4-1-3.3c-0.4-0.4-0.9-0.6-1.6-0.6c-1.4,0-2,1-2.3,1.9
			c-0.2,0.6-0.3,1.2-0.3,1.9v31.8c0,1.5,0.4,2.5,1.1,3.3c0.4,0.4,0.9,0.6,1.5,0.6c1.4,0,2-0.9,2.3-1.9c0.2-0.5,0.3-1.2,0.3-1.9v-9.6
			h-3.1v-6.6h10.9v26.4h-4.6l-0.9-2.5c-1.4,1.8-3.5,3.1-6,3.1s-4.2-0.6-5.5-1.8c-1.3-1.1-2.2-2.4-2.7-3.9c-0.6-1.7-0.9-3.6-0.9-5.8
			v-31.2c0.1-2.1,0.5-4,1.3-5.7c0.6-1.4,1.6-2.9,3-4s3.5-1.8,6-1.8s4.5,0.7,6,1.8c1.4,1.1,2.4,2.5,3.1,4c0.8,1.7,1.2,3.6,1.3,5.7
			v8.1h-7.9V721.6z"/>
		<path class="st23" d="M258.2,716.8c0-1.7-0.1-3.7-0.6-5.2c-0.5-1.4-1.3-2.4-2.5-2.4c-2,0.1-2.7,2.2-2.7,5.3c0,1.8,0.8,3.7,1.9,5.7
			c1.2,2,2.7,4.1,4.2,6.3c1.8,2.7,3.6,5.4,5,8.1c1.4,2.7,2.3,5.4,2.3,8.3c0,3.5-0.6,6.8-2.2,9.3s-4.3,4-8.6,4c-5,0-7.8-1.9-9.4-4.8
			c-1.6-2.9-1.9-6.7-1.9-10.7l7.6-0.7c0,2.2,0.1,4.5,0.6,6.1c0.5,1.7,1.4,2.9,3,2.9c2.3,0,3.2-2.4,3.2-5.8c0-1.7-0.9-3.7-2-5.8
			c-0.6-1-1.3-2.1-2-3.2c-1.5-2.2-3.2-4.6-4.9-7.3c-1.7-2.7-3-5.4-3.8-8.2c-0.4-1.4-0.6-2.8-0.6-4.2c0-2.9,0.6-6,2.3-8.4
			c1.7-2.3,4.2-4,7.8-4c4.7-0.1,7.4,1.9,8.9,4.7c1.5,2.9,1.9,6.4,1.9,9.4L258.2,716.8z"/>
		<path class="st23" d="M267.3,710.6v-8h22.4v8h-7.3v44.9h-7.8v-44.9H267.3z"/>
		<path class="st23" d="M306.7,755.5l-4-22.3h-2.1v22.3h-7.8v-52.9h7.8c9.3,0,13.2,5.3,13.2,15.3c0,5.3-1.4,10-4.3,12l5,25.6
			C314.5,755.5,306.7,755.5,306.7,755.5z M300.5,726c1.1,0,2.5-0.1,3.7-1.2c1.2-1,2.1-3,2.1-6.7s-0.9-5.8-2.1-6.8s-2.6-1.1-3.7-1.1
			V726z"/>
		<path class="st23" d="M318.8,702.6h17.8v8h-10v13.9h7.2v8.5h-7.2v14.5h10v8h-17.8V702.6z"/>
		<path class="st23" d="M353.7,716.8c0-1.7-0.1-3.7-0.6-5.2c-0.5-1.4-1.3-2.4-2.5-2.4c-2,0.1-2.7,2.2-2.7,5.3c0,1.8,0.8,3.7,1.9,5.7
			c1.2,2,2.7,4.1,4.2,6.3c1.8,2.7,3.6,5.4,5,8.1c1.4,2.7,2.3,5.4,2.3,8.3c0,3.5-0.6,6.8-2.2,9.3s-4.3,4-8.6,4c-5,0-7.8-1.9-9.4-4.8
			c-1.6-2.9-1.9-6.7-1.9-10.7l7.6-0.7c0,2.2,0.1,4.5,0.6,6.1c0.5,1.7,1.4,2.9,3,2.9c2.3,0,3.2-2.4,3.2-5.8c0-1.7-0.9-3.7-2-5.8
			c-0.6-1-1.3-2.1-2-3.2c-1.5-2.2-3.2-4.6-4.9-7.3c-1.7-2.7-3-5.4-3.8-8.2c-0.4-1.4-0.6-2.8-0.6-4.2c0-2.9,0.6-6,2.3-8.4
			c1.7-2.3,4.2-4,7.8-4c4.7-0.1,7.4,1.9,8.9,4.7c1.5,2.9,1.9,6.4,1.9,9.4L353.7,716.8z"/>
		<path class="st23" d="M378.4,716.8c0-1.7-0.1-3.7-0.6-5.2c-0.5-1.4-1.3-2.4-2.5-2.4c-2,0.1-2.7,2.2-2.7,5.3c0,1.8,0.8,3.7,1.9,5.7
			c1.2,2,2.7,4.1,4.2,6.3c1.8,2.7,3.6,5.4,5,8.1c1.4,2.7,2.3,5.4,2.3,8.3c0,3.5-0.6,6.8-2.2,9.3s-4.3,4-8.6,4c-5,0-7.8-1.9-9.4-4.8
			c-1.6-2.9-1.9-6.7-1.9-10.7l7.6-0.7c0,2.2,0.1,4.5,0.6,6.1c0.5,1.7,1.4,2.9,3,2.9c2.3,0,3.2-2.4,3.2-5.8c0-1.7-0.9-3.7-2-5.8
			c-0.6-1-1.3-2.1-2-3.2c-1.5-2.2-3.2-4.6-4.9-7.3c-1.7-2.7-3-5.4-3.8-8.2c-0.4-1.4-0.6-2.8-0.6-4.2c0-2.9,0.6-6,2.3-8.4
			c1.7-2.3,4.2-4,7.8-4c4.7-0.1,7.4,1.9,8.9,4.7c1.5,2.9,1.9,6.4,1.9,9.4L378.4,716.8z"/>
		<path class="st23" d="M390.2,702.6H408v8h-10v13.9h7.2v8.5H398v14.5h10v8h-17.8V702.6z"/>
		<path class="st23" d="M426.2,755.5l-4-22.3h-2.1v22.3h-7.8v-52.9h7.8c9.3,0,13.2,5.3,13.2,15.3c0,5.3-1.4,10-4.3,12l5,25.6
			C434,755.5,426.2,755.5,426.2,755.5z M420.1,726c1.1,0,2.5-0.1,3.7-1.2c1.2-1,2.1-3,2.1-6.7s-0.9-5.8-2.1-6.8s-2.6-1.1-3.7-1.1
			V726z"/>
	</g>
</g>
<g id="Layer_3">
</g>
<g id="Layer_2">
	
		<linearGradient id="SVGID_23_" gradientUnits="userSpaceOnUse" x1="197.8055" y1="739.0043" x2="230.026" y2="739.0043" gradientTransform="matrix(0.9487 -0.316 -0.316 -0.9487 228.3126 877.1854)">
		<stop  offset="0" style="stop-color:#262262"/>
		<stop  offset="0.5" style="stop-color:#662D91"/>
		<stop  offset="0.6733" style="stop-color:#642C8E"/>
		<stop  offset="0.7998" style="stop-color:#5C2A85"/>
		<stop  offset="0.911" style="stop-color:#4E2675"/>
		<stop  offset="1" style="stop-color:#3E2262"/>
	</linearGradient>
	<path class="st24" d="M184.4,106.7c0,0,3.5,1.7,20-2.1c3.7-0.9,6.1-1.4,8.4-1.1c0,0,2,2.1-2.5,4.1s-11,6.7-11,6.7
		s-9.2,2.3-10.1,2.3c-0.9-0.1-4.6,0.4-6.7-3C180.5,110.2,184.4,106.7,184.4,106.7z"/>
	
		<linearGradient id="SVGID_24_" gradientUnits="userSpaceOnUse" x1="197.8055" y1="739.0043" x2="230.026" y2="739.0043" gradientTransform="matrix(0.9487 -0.316 -0.316 -0.9487 228.3126 877.1854)">
		<stop  offset="0" style="stop-color:#17224D"/>
		<stop  offset="0.1136" style="stop-color:#32235C;stop-opacity:0.8864"/>
		<stop  offset="0.2834" style="stop-color:#55256E;stop-opacity:0.7166"/>
		<stop  offset="0.4564" style="stop-color:#70267D;stop-opacity:0.5436"/>
		<stop  offset="0.6319" style="stop-color:#832687;stop-opacity:0.3681"/>
		<stop  offset="0.8111" style="stop-color:#8E278D;stop-opacity:0.1889"/>
		<stop  offset="1" style="stop-color:#92278F;stop-opacity:0"/>
	</linearGradient>
	<path class="st25" d="M184.4,106.7c0,0,3.5,1.7,20-2.1c3.7-0.9,6.1-1.4,8.4-1.1c0,0,2,2.1-2.5,4.1s-11,6.7-11,6.7
		s-9.2,2.3-10.1,2.3c-0.9-0.1-4.6,0.4-6.7-3C180.5,110.2,184.4,106.7,184.4,106.7z"/>
	
		<linearGradient id="SVGID_25_" gradientUnits="userSpaceOnUse" x1="197.845" y1="738.4442" x2="224.5738" y2="738.4442" gradientTransform="matrix(0.9487 -0.316 -0.316 -0.9487 228.3126 877.1854)">
		<stop  offset="0" style="stop-color:#92278F;stop-opacity:0"/>
		<stop  offset="0.1214" style="stop-color:#972D90;stop-opacity:0.1214"/>
		<stop  offset="0.429" style="stop-color:#9F3591;stop-opacity:0.429"/>
		<stop  offset="1" style="stop-color:#A13791"/>
	</linearGradient>
	<path class="st26" d="M194.7,111.8c-9.8,2.5-9.5,0.2-9.5,0.2s-1.1-1.7-2.2-3.7c-0.9,1.3-1.7,3.3-0.5,5.2c2.1,3.4,5.9,2.9,6.7,3
		c0.9,0.1,10.1-2.3,10.1-2.3s5.1-3.8,9.5-6C205.3,109,200.3,110.4,194.7,111.8z"/>
	
		<linearGradient id="SVGID_26_" gradientUnits="userSpaceOnUse" x1="194.923" y1="749.6445" x2="237.8627" y2="749.6445" gradientTransform="matrix(0.9487 -0.316 -0.316 -0.9487 228.3126 877.1854)">
		<stop  offset="0" style="stop-color:#1C75BC"/>
		<stop  offset="0.5" style="stop-color:#00AEEF"/>
		<stop  offset="1" style="stop-color:#4FD5DF"/>
	</linearGradient>
	<path class="st27" d="M211.6,76.2c0,0,7.9,9-7.8,20.6c-16.9,12.5-21.3,19.8-14.3,19.7c0,0-9.7,2.4-11.3-6.9
		c-0.9-5.5,2.7-8.8,7.2-12.5C185.4,97.1,201.1,85.9,211.6,76.2z"/>
	
		<linearGradient id="SVGID_27_" gradientUnits="userSpaceOnUse" x1="210.6345" y1="705.5941" x2="210.6345" y2="722.7344" gradientTransform="matrix(0.9487 -0.316 -0.316 -0.9487 228.3126 877.1854)">
		<stop  offset="0" style="stop-color:#DA1C5C"/>
		<stop  offset="0.5" style="stop-color:#9E1F63"/>
		<stop  offset="1" style="stop-color:#9E1F63"/>
	</linearGradient>
	<path class="st28" d="M203.4,123.8c0,0-5.3,9.1,4.5,16.4c0.1,0.1,0,0.2-0.1,0.2c-1.6-0.5-4.1-1.6-6.1-2.7
		C195.6,134.2,200.3,127.1,203.4,123.8z"/>
	
		<linearGradient id="SVGID_28_" gradientUnits="userSpaceOnUse" x1="210.7207" y1="705.5941" x2="210.7207" y2="722.7344" gradientTransform="matrix(0.9487 -0.316 -0.316 -0.9487 228.3126 877.1854)">
		<stop  offset="0" style="stop-color:#DA1C5C"/>
		<stop  offset="0.9951" style="stop-color:#351840"/>
	</linearGradient>
	<path class="st29" d="M203.4,123.8c0,0-5.3,9.1,4.5,16.4c0.1,0.1,0,0.2-0.1,0.2c-1.6-0.5-5.2-1.9-6.8-3.4
		C195.9,132.2,200.3,127.1,203.4,123.8z"/>
	
		<linearGradient id="SVGID_29_" gradientUnits="userSpaceOnUse" x1="203.7333" y1="724.6391" x2="233.9644" y2="724.6391" gradientTransform="matrix(0.9487 -0.316 -0.316 -0.9487 228.3126 877.1854)">
		<stop  offset="0" style="stop-color:#EE2A7B"/>
		<stop  offset="0.5" style="stop-color:#DA1C5C"/>
		<stop  offset="1" style="stop-color:#9E1F63"/>
	</linearGradient>
	<path class="st30" d="M218.6,108.2c-0.3-4.3-6.2-4.8-6.2-4.8c3.5,1.9-7.3,4.2-15.2,13.1c-5.6,6.3-3.4,12.7-3.4,12.7l0,0
		c1.7,5.9,7.8,8.4,7.8,8.4C192,123.6,219.2,116.1,218.6,108.2z"/>
	
		<linearGradient id="SVGID_30_" gradientUnits="userSpaceOnUse" x1="203.7468" y1="724.6796" x2="234.0081" y2="724.6796" gradientTransform="matrix(0.9487 -0.316 -0.316 -0.9487 228.3126 877.1854)">
		<stop  offset="0" style="stop-color:#EE2A7B;stop-opacity:0"/>
		<stop  offset="0.1889" style="stop-color:#F13178;stop-opacity:0.3778"/>
		<stop  offset="0.5" style="stop-color:#F23477"/>
		<stop  offset="0.606" style="stop-color:#EE3376;stop-opacity:0.7881"/>
		<stop  offset="0.7168" style="stop-color:#E13073;stop-opacity:0.5664"/>
		<stop  offset="0.8299" style="stop-color:#CC2B6E;stop-opacity:0.3402"/>
		<stop  offset="0.9438" style="stop-color:#AF2367;stop-opacity:0.1123"/>
		<stop  offset="1" style="stop-color:#9E1F63;stop-opacity:0"/>
	</linearGradient>
	<path class="st31" d="M218.6,108.2c-0.2-4.4-6.2-4.9-6.2-4.9c3.5,1.9-7.3,4.2-15.2,13.1c-5.6,6.3-3.4,12.7-3.4,12.7l0,0
		c1.7,5.9,7.8,8.4,7.8,8.4C192,123.6,218.5,116.4,218.6,108.2z"/>
	
		<linearGradient id="SVGID_31_" gradientUnits="userSpaceOnUse" x1="194.9671" y1="749.658" x2="237.3349" y2="749.658" gradientTransform="matrix(0.9487 -0.316 -0.316 -0.9487 228.3126 877.1854)">
		<stop  offset="0" style="stop-color:#D9E8BC"/>
		<stop  offset="1" style="stop-color:#4FD5DF"/>
	</linearGradient>
	<path class="st32" d="M194.8,95.7c18.2-13,16.8-19.5,16.8-19.5c-9.3,8.9-26.2,20.9-26.2,20.9c-4.7,3.9-8.1,7-7.2,12.5
		c1.5,9.3,11.3,6.9,11.3,6.9C178.2,118.6,176.1,109.1,194.8,95.7z"/>
	<path class="st9" d="M211.6,76.2L211.6,76.2c0,0,1.4,6.5-16.8,19.5c-14.4,10.3-16.5,18.3-11.7,20.5c1.6,0.6,3.2,0.6,4.5,0.6
		c0.6,0,1.2-0.1,1.8-0.3c-7,0.1-2.6-7.2,14.3-19.7C219.6,85.1,211.6,76.2,211.6,76.2z"/>
	
		<linearGradient id="SVGID_32_" gradientUnits="userSpaceOnUse" x1="203.7468" y1="724.6796" x2="232.4354" y2="724.6796" gradientTransform="matrix(0.9487 -0.316 -0.316 -0.9487 228.3126 877.1854)">
		<stop  offset="0" style="stop-color:#EE2A7B;stop-opacity:0"/>
		<stop  offset="0.1864" style="stop-color:#D92775;stop-opacity:0.1864"/>
		<stop  offset="0.524" style="stop-color:#B9236B;stop-opacity:0.524"/>
		<stop  offset="0.8073" style="stop-color:#A52065;stop-opacity:0.8073"/>
		<stop  offset="1" style="stop-color:#9E1F63"/>
	</linearGradient>
	<path class="st33" d="M214.4,109.2c3.2-2.4,1.6-4.4,1.4-4.6c-1.7-1.1-3.3-1.3-3.3-1.3c3.5,1.9-7.3,4.2-15.2,13.1
		c-5.6,6.3-3.4,12.7-3.4,12.7l0,0c1.7,5.9,7.8,8.4,7.8,8.4C183.8,127.1,210.9,111.8,214.4,109.2z"/>
	
		<linearGradient id="SVGID_33_" gradientUnits="userSpaceOnUse" x1="204.8934" y1="724.6796" x2="234.0179" y2="724.6796" gradientTransform="matrix(0.9487 -0.316 -0.316 -0.9487 228.3126 877.1854)">
		<stop  offset="0" style="stop-color:#EE2A7B;stop-opacity:0"/>
		<stop  offset="4.750010e-002" style="stop-color:#F25797;stop-opacity:9.500021e-002"/>
		<stop  offset="0.1021" style="stop-color:#F583B2;stop-opacity:0.2041"/>
		<stop  offset="0.1591" style="stop-color:#F8A9CA;stop-opacity:0.3182"/>
		<stop  offset="0.2179" style="stop-color:#FBC9DD;stop-opacity:0.4358"/>
		<stop  offset="0.2791" style="stop-color:#FDE1EC;stop-opacity:0.5582"/>
		<stop  offset="0.3437" style="stop-color:#FEF2F7;stop-opacity:0.6873"/>
		<stop  offset="0.4138" style="stop-color:#FFFCFD;stop-opacity:0.8276"/>
		<stop  offset="0.5" style="stop-color:#FFFFFF"/>
		<stop  offset="0.5637" style="stop-color:#FDFBFC;stop-opacity:0.8726"/>
		<stop  offset="0.6304" style="stop-color:#F8EEF3;stop-opacity:0.7391"/>
		<stop  offset="0.6985" style="stop-color:#EFD9E5;stop-opacity:0.6029"/>
		<stop  offset="0.7676" style="stop-color:#E2BCD0;stop-opacity:0.4648"/>
		<stop  offset="0.8374" style="stop-color:#D296B6;stop-opacity:0.3252"/>
		<stop  offset="0.9078" style="stop-color:#BE6896;stop-opacity:0.1843"/>
		<stop  offset="0.9775" style="stop-color:#A63270;stop-opacity:4.495645e-002"/>
		<stop  offset="1" style="stop-color:#9E1F63;stop-opacity:0"/>
	</linearGradient>
	<path class="st34" d="M212.5,103.4c0,0,1.7,0.2,3.3,1.3c0.2,0.2,1.8,2.2-1.4,4.6c-3.5,2.6-31,17.4-12.7,28.4
		c-9.7-13.9,16.8-21.2,16.9-29.4C218.5,103.9,212.5,103.4,212.5,103.4z"/>
	<g>
		<path d="M31.4,134.7l-5-33.3l-0.3-2.2h-0.4v35.5h-7.2V81.8H28l4.6,24.2l0.4,2.8h0.1l0.4-2.8l4.6-24.2h9.5v52.9h-7.2V99.2H40
			l-0.3,2.2l-5,33.3H31.4z"/>
		<path d="M62.5,98.7l0.2,0.5h0.1l0.2-0.5l3.9-16.9h7.7l-8,30.4v22.5h-7.8v-22.5L51,81.8h7.6L62.5,98.7z"/>
		<path d="M90.4,100.8v-8.1c0-1.4-0.3-2.4-1-3.3c-0.4-0.4-0.9-0.6-1.6-0.6c-1.4,0-2,1-2.3,1.9c-0.2,0.6-0.3,1.2-0.3,1.9v31.8
			c0,1.5,0.4,2.5,1.1,3.3c0.4,0.4,0.9,0.6,1.5,0.6c1.4,0,2-0.9,2.3-1.9c0.2-0.5,0.3-1.2,0.3-1.9v-9.6h-3.1v-6.6h10.9v26.4h-4.6
			l-1-2.5c-1.4,1.8-3.5,3.1-6,3.1s-4.2-0.6-5.5-1.8c-1.3-1.1-2.2-2.4-2.7-3.9c-0.6-1.7-0.9-3.6-0.9-5.8V92.6c0.1-2.1,0.5-4,1.3-5.7
			c0.6-1.4,1.6-2.9,3-4s3.5-1.8,6-1.8s4.5,0.7,6,1.8s2.4,2.5,3.1,4c0.8,1.7,1.2,3.6,1.3,5.7v8.2H90.4z"/>
		<path d="M103.9,81.8h17.8v8h-10.1v13.9h7.2v8.5h-7.2v14.5h10v8h-17.7V81.8z"/>
		<path d="M126,81.8h7.8v45.7h10.3v7.2H126V81.8z"/>
	</g>
	<text transform="matrix(1 0 0 1 144.1314 135.2903)" style="font-family:'LeagueGothic-Regular'; font-size:72px;">B</text>
</g>
</svg>
